<svg width="145.000000" height="23.000000" viewBox="0 0 145 23" fill="none" xmlns="http://www.w3.org/2000/svg" xmlns:xlink="http://www.w3.org/1999/xlink">
	<desc>
			Created with Pixso.
	</desc>
	<defs/>
	<path d="M116.13 -0.67L116.13 17L117.14 17L117.14 -0.67L116.13 -0.67ZM-0.68 0.07L-0.68 17L5.83 17Q8.54 17 9.98 15.83Q10.34 15.55 10.6 15.19Q11.42 14.11 11.42 12.41Q11.42 10.94 10.73 9.96Q10.55 9.7 10.33 9.48Q10.25 9.41 10.18 9.34Q9.37 8.62 8.15 8.36Q9.21 8 9.93 7.29Q9.99 7.24 10.04 7.18Q10.32 6.88 10.53 6.53Q11.03 5.66 11.03 4.49Q11.03 3 10.34 2Q10.03 1.56 9.59 1.22Q8.16 0.07 5.49 0.07L-0.68 0.07ZM5.44 7.97L0.33 7.97L0.33 1.01L5.44 1.01Q7.68 1.01 8.83 1.9Q9.17 2.17 9.42 2.51Q9.98 3.3 9.98 4.49Q9.98 5.63 9.45 6.41Q9.2 6.78 8.83 7.08Q7.68 7.97 5.44 7.97ZM41.6 16.67Q42.31 17.19 43.41 17.19Q43.84 17.19 44.29 17.1Q44.73 17.02 45 16.9L45 15.94Q44.73 16.06 44.35 16.16Q43.96 16.25 43.48 16.25Q42.64 16.25 42.16 15.84Q42 15.7 41.88 15.53Q41.39 14.81 41.39 13.23L41.39 5.86L45.04 5.86L45.04 5L41.39 5L41.39 1.18L40.38 1.56L40.38 5L37.99 5L37.99 5.86L40.38 5.86L40.38 13.44Q40.38 15.34 41.16 16.26Q41.36 16.49 41.6 16.67ZM16.82 16.28Q18.2 17.19 20.18 17.19Q21.02 17.19 21.82 17Q22.28 16.9 22.72 16.73Q23.95 16.27 24.69 15.46L24.19 14.67Q23.28 15.53 22.29 15.89Q21.31 16.25 20.18 16.25Q18.39 16.25 17.23 15.39Q16.94 15.18 16.7 14.92Q15.45 13.58 15.45 11.04L15.45 10.95L24.88 10.95L24.88 10.3Q24.88 8.59 24.29 7.36Q23.87 6.48 23.2 5.9Q22.93 5.66 22.62 5.46Q21.53 4.8 19.96 4.8Q18.61 4.8 17.51 5.33Q17.29 5.44 17.07 5.57Q16.67 5.82 16.32 6.13Q15.59 6.78 15.12 7.73Q14.42 9.13 14.42 11.04Q14.42 13.7 15.72 15.29Q15.84 15.43 15.98 15.57Q16.37 15.97 16.82 16.28ZM15.5 10.03Q15.67 8.43 16.51 7.33Q16.57 7.24 16.64 7.16Q17.04 6.67 17.54 6.35Q18.54 5.72 19.94 5.72Q21.5 5.72 22.46 6.48Q22.72 6.69 22.94 6.95Q23.87 8.1 23.94 10.03L15.5 10.03ZM29.43 16.77Q30.62 17.19 31.96 17.19Q33.31 17.19 34.32 16.78Q35.32 16.37 35.87 15.63Q36.03 15.42 36.15 15.18Q36.43 14.6 36.43 13.88Q36.43 13.08 36.07 12.49Q35.9 12.19 35.63 11.94Q34.84 11.21 33.21 10.83L31.12 10.34Q30 10.08 29.48 9.55Q29.33 9.4 29.23 9.23Q28.96 8.79 28.96 8.19Q28.96 7.57 29.22 7.09Q29.42 6.71 29.79 6.41Q30.62 5.74 32.18 5.74Q33.11 5.74 33.93 6.05Q34.01 6.08 34.1 6.11Q34.19 6.15 34.29 6.2Q35.07 6.56 35.7 7.23L36.24 6.44Q35.59 5.67 34.52 5.24Q33.45 4.8 32.18 4.8Q30.86 4.8 29.89 5.25Q28.95 5.68 28.44 6.4Q28.42 6.43 28.4 6.46Q28.23 6.7 28.12 6.97Q27.88 7.54 27.88 8.21Q27.88 8.97 28.19 9.58Q28.36 9.9 28.63 10.18Q29.37 10.97 30.91 11.33L33 11.79Q34.27 12.05 34.82 12.57Q35 12.73 35.12 12.94Q35.37 13.36 35.37 13.92Q35.37 14.47 35.15 14.91Q34.93 15.32 34.5 15.63Q33.64 16.25 32.01 16.25Q30.88 16.25 29.87 15.91Q29.82 15.89 29.76 15.87Q28.82 15.51 28.01 14.81L27.5 15.6Q28.25 16.34 29.43 16.77ZM102.14 7.58L102.14 22.18L103.14 22.18L103.14 14.61Q103.41 15.21 103.82 15.69Q104.11 16.03 104.48 16.3Q104.65 16.43 104.82 16.53Q105.91 17.19 107.39 17.19Q108.95 17.19 110.12 16.51Q110.18 16.48 110.23 16.44Q110.54 16.25 110.82 16.01Q111.6 15.34 112.07 14.31Q112.72 12.92 112.72 11Q112.72 9.05 112.06 7.67Q111.56 6.61 110.74 5.92Q110.49 5.72 110.22 5.55Q110.18 5.52 110.14 5.5Q108.98 4.8 107.39 4.8Q105.92 4.8 104.84 5.45Q104.66 5.56 104.48 5.69Q104.12 5.96 103.83 6.29Q103.39 6.79 103.12 7.44L102.93 5L101.95 5Q102.02 5.67 102.08 6.32Q102.14 6.96 102.14 7.58ZM123.17 16.52Q124.33 17.19 125.87 17.19Q127.18 17.19 128.2 16.66Q128.5 16.5 128.78 16.3Q129.23 15.98 129.57 15.56Q129.9 15.14 130.12 14.64L130.12 17L131.13 17L131.13 7.58Q131.13 6.96 131.19 6.32Q131.25 5.67 131.32 5L130.34 5L130.15 7.42Q129.91 6.85 129.54 6.4Q129.22 6 128.79 5.69Q128.56 5.52 128.31 5.39Q127.25 4.8 125.87 4.8Q124.42 4.8 123.3 5.41Q123.18 5.48 123.07 5.55Q122.77 5.73 122.51 5.95Q121.7 6.63 121.2 7.67Q120.55 9.05 120.55 11Q120.55 12.92 121.19 14.31Q121.68 15.35 122.47 16.03Q122.74 16.26 123.04 16.44Q123.11 16.48 123.17 16.52ZM135.35 7.58L135.35 17L136.36 17L136.36 10.08Q136.36 8.44 137.14 7.35Q137.3 7.12 137.5 6.92Q137.77 6.64 138.09 6.43Q139.1 5.74 140.59 5.74Q142.22 5.74 143.01 6.55Q143.05 6.59 143.08 6.63Q143.88 7.51 143.88 9.46L143.88 17L144.89 17L144.89 9.36Q144.89 7.01 143.79 5.91Q143.75 5.87 143.71 5.83Q142.62 4.8 140.56 4.8Q139.19 4.8 138.12 5.37Q137.94 5.47 137.77 5.58Q137.49 5.77 137.24 5.99Q136.67 6.52 136.32 7.27L136.15 5L135.17 5Q135.24 5.67 135.29 6.32Q135.35 6.96 135.35 7.58ZM109.58 15.7Q108.65 16.25 107.39 16.25Q106.14 16.25 105.22 15.7Q104.69 15.39 104.28 14.9Q103.12 13.54 103.12 11Q103.12 8.45 104.28 7.1Q104.7 6.6 105.23 6.29Q106.15 5.74 107.39 5.74Q108.64 5.74 109.57 6.29Q110.1 6.6 110.53 7.1Q111.69 8.45 111.69 11Q111.69 13.54 110.53 14.9Q110.11 15.39 109.58 15.7ZM128.07 15.69Q127.14 16.25 125.87 16.25Q124.63 16.25 123.7 15.71Q123.17 15.39 122.74 14.9Q121.58 13.54 121.58 11Q121.58 8.45 122.74 7.1Q123.18 6.6 123.72 6.28Q124.64 5.74 125.87 5.74Q127.13 5.74 128.05 6.29Q128.58 6.61 129 7.1Q130.15 8.45 130.15 11Q130.15 13.54 129 14.9Q128.58 15.38 128.07 15.69ZM5.8 16.06L0.33 16.06L0.33 8.91L5.8 8.91Q7.86 8.91 9.11 9.71Q9.38 9.88 9.59 10.11Q10.36 10.93 10.36 12.48Q10.36 13.99 9.61 14.82Q9.39 15.06 9.11 15.24Q7.86 16.06 5.8 16.06Z" fill="#333333" fill-opacity="1.000000" fill-rule="evenodd"/>
	<path d="M55.38 16.67Q56.09 17.19 57.18 17.19Q57.62 17.19 58.06 17.1Q58.51 17.02 58.77 16.9L58.77 15.94Q58.51 16.06 58.12 16.16Q57.74 16.25 57.26 16.25Q56.42 16.25 55.93 15.84Q55.78 15.7 55.66 15.53Q55.17 14.81 55.17 13.23L55.17 5.86L58.82 5.86L58.82 5L55.17 5L55.17 1.18L54.16 1.56L54.16 5L51.76 5L51.76 5.86L54.16 5.86L54.16 13.44Q54.16 15.34 54.94 16.26Q55.14 16.49 55.38 16.67ZM63.15 16.52Q64.31 17.19 65.85 17.19Q67.41 17.19 68.58 16.51Q68.63 16.48 68.68 16.44Q68.98 16.26 69.24 16.04Q70.05 15.36 70.54 14.31Q71.2 12.92 71.2 11Q71.2 9.07 70.54 7.68Q70.04 6.62 69.22 5.93Q68.97 5.72 68.68 5.55Q68.63 5.51 68.58 5.48Q67.41 4.8 65.85 4.8Q64.31 4.8 63.15 5.47Q63.08 5.51 63.02 5.55Q62.72 5.73 62.46 5.95Q61.66 6.63 61.17 7.68Q60.52 9.07 60.52 11Q60.52 12.92 61.17 14.31Q61.65 15.35 62.45 16.03Q62.71 16.26 63.02 16.44Q63.08 16.48 63.15 16.52ZM88.03 7.73L88.03 17L89.03 17L89.03 9.31Q89.03 8.52 89.49 7.7Q89.61 7.47 89.76 7.27Q90.17 6.71 90.77 6.3Q90.97 6.17 91.18 6.07Q91.87 5.74 92.71 5.74Q93.02 5.74 93.29 5.76Q93.57 5.79 93.81 5.86L93.86 4.92Q93.62 4.85 93.34 4.83Q93.06 4.8 92.78 4.8Q91.96 4.8 91.13 5.12Q90.79 5.25 90.47 5.43Q90.04 5.69 89.67 6.06Q89.58 6.14 89.5 6.23Q89.18 6.6 88.98 7.07L88.87 5L87.88 5Q87.96 5.67 87.99 6.37Q88.03 7.06 88.03 7.73ZM75.79 16.23Q76.87 17.19 78.79 17.19Q79.95 17.19 80.9 16.73Q81.22 16.58 81.51 16.37Q81.83 16.15 82.1 15.87Q82.56 15.4 82.86 14.79L82.86 17L83.85 17L83.85 5L82.84 5L82.84 11.91Q82.84 13.57 82.06 14.67Q81.91 14.88 81.74 15.07Q81.42 15.41 81.03 15.66Q80.1 16.25 78.79 16.25Q77.26 16.25 76.47 15.49Q76.4 15.43 76.34 15.35Q75.55 14.45 75.55 12.51L75.55 5L74.54 5L74.54 12.6Q74.54 14.93 75.62 16.06Q75.7 16.15 75.79 16.23ZM68.03 15.71Q67.1 16.25 65.85 16.25Q64.6 16.25 63.68 15.71Q63.15 15.39 62.72 14.9Q61.55 13.54 61.55 11Q61.55 8.45 62.72 7.1Q63.15 6.6 63.69 6.28Q64.61 5.74 65.85 5.74Q67.09 5.74 68.01 6.28Q68.56 6.59 68.99 7.1Q70.17 8.45 70.17 11Q70.17 13.54 68.99 14.9Q68.56 15.39 68.03 15.71Z" fill="#EC1F46" fill-opacity="1.000000" fill-rule="evenodd"/>
</svg>
