<svg width="16.000000" height="16.000000" viewBox="0 0 16 16" fill="none" xmlns="http://www.w3.org/2000/svg" xmlns:xlink="http://www.w3.org/1999/xlink">
	<desc>
			Created with Pixso.
	</desc>
	<defs>
		<clipPath id="clip11_238">
			<rect width="16.000000" height="16.000000" fill="white" fill-opacity="0"/>
		</clipPath>
	</defs>
	<rect width="16.000000" height="16.000000" fill="#FFFFFF" fill-opacity="0"/>
	<g clip-path="url(#clip11_238)">
		<path d="M7.33 2.66C4.75 2.66 2.66 4.75 2.66 7.33C2.66 9.91 4.75 12 7.33 12C9.91 12 12 9.91 12 7.33C12 4.75 9.91 2.66 7.33 2.66ZM1.33 7.33C1.33 4.01 4.01 1.33 7.33 1.33C10.64 1.33 13.33 4.01 13.33 7.33C13.33 10.64 10.64 13.33 7.33 13.33C4.01 13.33 1.33 10.64 1.33 7.33Z" fill="#FFFFFF" fill-opacity="1.000000" fill-rule="evenodd"/>
		<path d="M10.62 10.62C10.88 10.36 11.31 10.36 11.57 10.62L14.47 13.52C14.73 13.78 14.73 14.21 14.47 14.47C14.21 14.73 13.78 14.73 13.52 14.47L10.62 11.57C10.36 11.31 10.36 10.88 10.62 10.62Z" fill="#FFFFFF" fill-opacity="1.000000" fill-rule="evenodd"/>
	</g>
</svg>
